<mxfile host="Electron" modified="2023-11-20T13:56:46.250Z" agent="Mozilla/5.0 (Windows NT 10.0; Win64; x64) AppleWebKit/537.36 (KHTML, like Gecko) draw.io/21.1.2 Chrome/106.0.5249.199 Electron/21.4.3 Safari/537.36" etag="QKJIZz_35WCmejrUsIMN" version="21.1.2" type="device">
  <diagram name="第 1 页" id="t-fUq_1vdGzeu0lM_TjC">
    <mxGraphModel dx="1434" dy="2013" grid="1" gridSize="10" guides="1" tooltips="1" connect="1" arrows="1" fold="1" page="1" pageScale="1" pageWidth="827" pageHeight="1169" math="0" shadow="0">
      <root>
        <mxCell id="0" />
        <mxCell id="1" parent="0" />
        <mxCell id="pys0dCO1HzW-Lo9ZsbFu-42" value="" style="rounded=1;whiteSpace=wrap;html=1;fillColor=#ffe6cc;strokeColor=#d79b00;" vertex="1" parent="1">
          <mxGeometry x="209" y="237.5" width="491" height="75" as="geometry" />
        </mxCell>
        <mxCell id="pys0dCO1HzW-Lo9ZsbFu-6" style="edgeStyle=orthogonalEdgeStyle;rounded=0;orthogonalLoop=1;jettySize=auto;html=1;exitX=0.5;exitY=1;exitDx=0;exitDy=0;entryX=0.5;entryY=0;entryDx=0;entryDy=0;" edge="1" parent="1" source="pys0dCO1HzW-Lo9ZsbFu-1" target="pys0dCO1HzW-Lo9ZsbFu-4">
          <mxGeometry relative="1" as="geometry" />
        </mxCell>
        <mxCell id="pys0dCO1HzW-Lo9ZsbFu-1" value="TCP&lt;br&gt;接入系统" style="rounded=1;whiteSpace=wrap;html=1;" vertex="1" parent="1">
          <mxGeometry x="280" y="250" width="100" height="50" as="geometry" />
        </mxCell>
        <mxCell id="pys0dCO1HzW-Lo9ZsbFu-2" value="接入层" style="text;html=1;align=center;verticalAlign=middle;resizable=0;points=[];autosize=1;fillColor=none;fontColor=#FF8000;" vertex="1" parent="1">
          <mxGeometry x="210" y="237.5" width="60" height="30" as="geometry" />
        </mxCell>
        <mxCell id="pys0dCO1HzW-Lo9ZsbFu-3" value="WebSocket&lt;br&gt;接入系统" style="rounded=1;whiteSpace=wrap;html=1;" vertex="1" parent="1">
          <mxGeometry x="575" y="250" width="100" height="50" as="geometry" />
        </mxCell>
        <mxCell id="pys0dCO1HzW-Lo9ZsbFu-14" style="edgeStyle=orthogonalEdgeStyle;rounded=0;orthogonalLoop=1;jettySize=auto;html=1;exitX=0.5;exitY=1;exitDx=0;exitDy=0;entryX=0.201;entryY=-0.02;entryDx=0;entryDy=0;entryPerimeter=0;" edge="1" parent="1" source="pys0dCO1HzW-Lo9ZsbFu-4" target="pys0dCO1HzW-Lo9ZsbFu-7">
          <mxGeometry relative="1" as="geometry" />
        </mxCell>
        <mxCell id="pys0dCO1HzW-Lo9ZsbFu-24" style="edgeStyle=orthogonalEdgeStyle;rounded=0;orthogonalLoop=1;jettySize=auto;html=1;exitX=0;exitY=0.75;exitDx=0;exitDy=0;entryX=0.5;entryY=0;entryDx=0;entryDy=0;" edge="1" parent="1" source="pys0dCO1HzW-Lo9ZsbFu-4" target="pys0dCO1HzW-Lo9ZsbFu-20">
          <mxGeometry relative="1" as="geometry" />
        </mxCell>
        <mxCell id="pys0dCO1HzW-Lo9ZsbFu-54" style="edgeStyle=orthogonalEdgeStyle;rounded=0;orthogonalLoop=1;jettySize=auto;html=1;exitX=0;exitY=0.25;exitDx=0;exitDy=0;entryX=0.5;entryY=1;entryDx=0;entryDy=0;" edge="1" parent="1" source="pys0dCO1HzW-Lo9ZsbFu-4" target="pys0dCO1HzW-Lo9ZsbFu-44">
          <mxGeometry relative="1" as="geometry" />
        </mxCell>
        <mxCell id="pys0dCO1HzW-Lo9ZsbFu-4" value="请求分发功能" style="rounded=1;whiteSpace=wrap;html=1;" vertex="1" parent="1">
          <mxGeometry x="310" y="390" width="100" height="50" as="geometry" />
        </mxCell>
        <mxCell id="pys0dCO1HzW-Lo9ZsbFu-16" style="edgeStyle=orthogonalEdgeStyle;rounded=0;orthogonalLoop=1;jettySize=auto;html=1;exitX=0.5;exitY=0;exitDx=0;exitDy=0;entryX=0.5;entryY=1;entryDx=0;entryDy=0;" edge="1" parent="1" source="pys0dCO1HzW-Lo9ZsbFu-5" target="pys0dCO1HzW-Lo9ZsbFu-3">
          <mxGeometry relative="1" as="geometry" />
        </mxCell>
        <mxCell id="pys0dCO1HzW-Lo9ZsbFu-5" value="消息推送功能" style="rounded=1;whiteSpace=wrap;html=1;" vertex="1" parent="1">
          <mxGeometry x="470" y="390" width="100" height="50" as="geometry" />
        </mxCell>
        <mxCell id="pys0dCO1HzW-Lo9ZsbFu-15" style="edgeStyle=orthogonalEdgeStyle;rounded=0;orthogonalLoop=1;jettySize=auto;html=1;exitX=0.788;exitY=-0.02;exitDx=0;exitDy=0;entryX=0.5;entryY=1;entryDx=0;entryDy=0;exitPerimeter=0;" edge="1" parent="1" source="pys0dCO1HzW-Lo9ZsbFu-7" target="pys0dCO1HzW-Lo9ZsbFu-5">
          <mxGeometry relative="1" as="geometry" />
        </mxCell>
        <mxCell id="pys0dCO1HzW-Lo9ZsbFu-21" style="edgeStyle=orthogonalEdgeStyle;rounded=0;orthogonalLoop=1;jettySize=auto;html=1;exitX=0.5;exitY=1;exitDx=0;exitDy=0;entryX=0.5;entryY=0;entryDx=0;entryDy=0;" edge="1" parent="1" source="pys0dCO1HzW-Lo9ZsbFu-7" target="pys0dCO1HzW-Lo9ZsbFu-17">
          <mxGeometry relative="1" as="geometry" />
        </mxCell>
        <mxCell id="pys0dCO1HzW-Lo9ZsbFu-22" style="edgeStyle=orthogonalEdgeStyle;rounded=0;orthogonalLoop=1;jettySize=auto;html=1;exitX=1;exitY=0.5;exitDx=0;exitDy=0;entryX=0.5;entryY=0;entryDx=0;entryDy=0;" edge="1" parent="1" source="pys0dCO1HzW-Lo9ZsbFu-7" target="pys0dCO1HzW-Lo9ZsbFu-19">
          <mxGeometry relative="1" as="geometry" />
        </mxCell>
        <mxCell id="pys0dCO1HzW-Lo9ZsbFu-7" value="MQ中间件" style="rounded=1;whiteSpace=wrap;html=1;" vertex="1" parent="1">
          <mxGeometry x="305" y="510" width="274" height="50" as="geometry" />
        </mxCell>
        <mxCell id="pys0dCO1HzW-Lo9ZsbFu-10" style="edgeStyle=orthogonalEdgeStyle;rounded=0;orthogonalLoop=1;jettySize=auto;html=1;exitX=0.5;exitY=1;exitDx=0;exitDy=0;entryX=0.5;entryY=0;entryDx=0;entryDy=0;" edge="1" parent="1" source="pys0dCO1HzW-Lo9ZsbFu-8" target="pys0dCO1HzW-Lo9ZsbFu-1">
          <mxGeometry relative="1" as="geometry" />
        </mxCell>
        <mxCell id="pys0dCO1HzW-Lo9ZsbFu-8" value="APP SDK" style="rounded=1;whiteSpace=wrap;html=1;" vertex="1" parent="1">
          <mxGeometry x="310" y="110" width="100" height="50" as="geometry" />
        </mxCell>
        <mxCell id="pys0dCO1HzW-Lo9ZsbFu-11" style="edgeStyle=orthogonalEdgeStyle;rounded=0;orthogonalLoop=1;jettySize=auto;html=1;exitX=0.5;exitY=1;exitDx=0;exitDy=0;entryX=0.5;entryY=0;entryDx=0;entryDy=0;" edge="1" parent="1" source="pys0dCO1HzW-Lo9ZsbFu-9" target="pys0dCO1HzW-Lo9ZsbFu-3">
          <mxGeometry relative="1" as="geometry" />
        </mxCell>
        <mxCell id="pys0dCO1HzW-Lo9ZsbFu-9" value="H5" style="rounded=1;whiteSpace=wrap;html=1;" vertex="1" parent="1">
          <mxGeometry x="470" y="110" width="100" height="50" as="geometry" />
        </mxCell>
        <mxCell id="pys0dCO1HzW-Lo9ZsbFu-12" value="基于token令牌&lt;br&gt;建立连接" style="text;html=1;align=center;verticalAlign=middle;resizable=0;points=[];autosize=1;strokeColor=none;fillColor=none;" vertex="1" parent="1">
          <mxGeometry x="350" y="190" width="100" height="40" as="geometry" />
        </mxCell>
        <mxCell id="pys0dCO1HzW-Lo9ZsbFu-13" value="建立连接" style="text;html=1;align=center;verticalAlign=middle;resizable=0;points=[];autosize=1;strokeColor=none;fillColor=none;" vertex="1" parent="1">
          <mxGeometry x="505" y="185" width="70" height="30" as="geometry" />
        </mxCell>
        <mxCell id="pys0dCO1HzW-Lo9ZsbFu-23" style="edgeStyle=orthogonalEdgeStyle;rounded=0;orthogonalLoop=1;jettySize=auto;html=1;exitX=1;exitY=0.5;exitDx=0;exitDy=0;entryX=0.75;entryY=1;entryDx=0;entryDy=0;" edge="1" parent="1" source="pys0dCO1HzW-Lo9ZsbFu-17" target="pys0dCO1HzW-Lo9ZsbFu-7">
          <mxGeometry relative="1" as="geometry">
            <mxPoint x="510" y="570" as="targetPoint" />
            <Array as="points">
              <mxPoint x="511" y="675" />
              <mxPoint x="511" y="605" />
            </Array>
          </mxGeometry>
        </mxCell>
        <mxCell id="pys0dCO1HzW-Lo9ZsbFu-28" style="edgeStyle=orthogonalEdgeStyle;rounded=0;orthogonalLoop=1;jettySize=auto;html=1;exitX=0.5;exitY=1;exitDx=0;exitDy=0;entryX=0.5;entryY=0;entryDx=0;entryDy=0;" edge="1" parent="1" source="pys0dCO1HzW-Lo9ZsbFu-17" target="pys0dCO1HzW-Lo9ZsbFu-25">
          <mxGeometry relative="1" as="geometry" />
        </mxCell>
        <mxCell id="pys0dCO1HzW-Lo9ZsbFu-17" value="单聊" style="rounded=1;whiteSpace=wrap;html=1;" vertex="1" parent="1">
          <mxGeometry x="392" y="650" width="100" height="50" as="geometry" />
        </mxCell>
        <mxCell id="pys0dCO1HzW-Lo9ZsbFu-18" value="群聊" style="rounded=1;whiteSpace=wrap;html=1;" vertex="1" parent="1">
          <mxGeometry x="560" y="650" width="100" height="50" as="geometry" />
        </mxCell>
        <mxCell id="pys0dCO1HzW-Lo9ZsbFu-27" style="edgeStyle=orthogonalEdgeStyle;rounded=0;orthogonalLoop=1;jettySize=auto;html=1;exitX=0.5;exitY=1;exitDx=0;exitDy=0;entryX=0.5;entryY=0;entryDx=0;entryDy=0;" edge="1" parent="1" source="pys0dCO1HzW-Lo9ZsbFu-19" target="pys0dCO1HzW-Lo9ZsbFu-26">
          <mxGeometry relative="1" as="geometry" />
        </mxCell>
        <mxCell id="pys0dCO1HzW-Lo9ZsbFu-19" value="离线消息" style="rounded=1;whiteSpace=wrap;html=1;" vertex="1" parent="1">
          <mxGeometry x="740" y="650" width="100" height="50" as="geometry" />
        </mxCell>
        <mxCell id="pys0dCO1HzW-Lo9ZsbFu-41" style="edgeStyle=orthogonalEdgeStyle;rounded=0;orthogonalLoop=1;jettySize=auto;html=1;exitX=0;exitY=0.5;exitDx=0;exitDy=0;entryX=0.25;entryY=1;entryDx=0;entryDy=0;" edge="1" parent="1" source="pys0dCO1HzW-Lo9ZsbFu-20" target="pys0dCO1HzW-Lo9ZsbFu-33">
          <mxGeometry relative="1" as="geometry" />
        </mxCell>
        <mxCell id="pys0dCO1HzW-Lo9ZsbFu-20" value="认证功能" style="rounded=1;whiteSpace=wrap;html=1;" vertex="1" parent="1">
          <mxGeometry x="214" y="650" width="100" height="50" as="geometry" />
        </mxCell>
        <mxCell id="pys0dCO1HzW-Lo9ZsbFu-25" value="Redis" style="rounded=1;whiteSpace=wrap;html=1;" vertex="1" parent="1">
          <mxGeometry x="240" y="830" width="100" height="50" as="geometry" />
        </mxCell>
        <mxCell id="pys0dCO1HzW-Lo9ZsbFu-26" value="MySQL" style="rounded=1;whiteSpace=wrap;html=1;" vertex="1" parent="1">
          <mxGeometry x="490" y="830" width="100" height="50" as="geometry" />
        </mxCell>
        <mxCell id="pys0dCO1HzW-Lo9ZsbFu-31" style="edgeStyle=orthogonalEdgeStyle;rounded=0;orthogonalLoop=1;jettySize=auto;html=1;exitX=0.5;exitY=1;exitDx=0;exitDy=0;entryX=0.5;entryY=0;entryDx=0;entryDy=0;" edge="1" parent="1" source="pys0dCO1HzW-Lo9ZsbFu-29" target="pys0dCO1HzW-Lo9ZsbFu-8">
          <mxGeometry relative="1" as="geometry" />
        </mxCell>
        <mxCell id="pys0dCO1HzW-Lo9ZsbFu-29" value="客服模块" style="rounded=1;whiteSpace=wrap;html=1;" vertex="1" parent="1">
          <mxGeometry x="310" width="100" height="50" as="geometry" />
        </mxCell>
        <mxCell id="pys0dCO1HzW-Lo9ZsbFu-32" style="edgeStyle=orthogonalEdgeStyle;rounded=0;orthogonalLoop=1;jettySize=auto;html=1;exitX=0.5;exitY=1;exitDx=0;exitDy=0;entryX=0.5;entryY=0;entryDx=0;entryDy=0;" edge="1" parent="1" source="pys0dCO1HzW-Lo9ZsbFu-30" target="pys0dCO1HzW-Lo9ZsbFu-9">
          <mxGeometry relative="1" as="geometry" />
        </mxCell>
        <mxCell id="pys0dCO1HzW-Lo9ZsbFu-30" value="网页版" style="rounded=1;whiteSpace=wrap;html=1;" vertex="1" parent="1">
          <mxGeometry x="470" width="100" height="50" as="geometry" />
        </mxCell>
        <mxCell id="pys0dCO1HzW-Lo9ZsbFu-34" style="edgeStyle=orthogonalEdgeStyle;rounded=0;orthogonalLoop=1;jettySize=auto;html=1;exitX=0.75;exitY=1;exitDx=0;exitDy=0;entryX=0;entryY=0.5;entryDx=0;entryDy=0;" edge="1" parent="1" source="pys0dCO1HzW-Lo9ZsbFu-33" target="pys0dCO1HzW-Lo9ZsbFu-8">
          <mxGeometry relative="1" as="geometry" />
        </mxCell>
        <mxCell id="pys0dCO1HzW-Lo9ZsbFu-33" value="SSO单点&lt;br&gt;登录系统" style="rounded=1;whiteSpace=wrap;html=1;" vertex="1" parent="1">
          <mxGeometry x="160" y="-60" width="100" height="50" as="geometry" />
        </mxCell>
        <mxCell id="pys0dCO1HzW-Lo9ZsbFu-35" value="获取token" style="text;html=1;align=center;verticalAlign=middle;resizable=0;points=[];autosize=1;strokeColor=none;fillColor=none;" vertex="1" parent="1">
          <mxGeometry x="200" y="65" width="80" height="30" as="geometry" />
        </mxCell>
        <mxCell id="pys0dCO1HzW-Lo9ZsbFu-37" style="edgeStyle=orthogonalEdgeStyle;rounded=0;orthogonalLoop=1;jettySize=auto;html=1;exitX=0.25;exitY=1;exitDx=0;exitDy=0;entryX=0.5;entryY=0;entryDx=0;entryDy=0;" edge="1" parent="1" source="pys0dCO1HzW-Lo9ZsbFu-36" target="pys0dCO1HzW-Lo9ZsbFu-29">
          <mxGeometry relative="1" as="geometry" />
        </mxCell>
        <mxCell id="pys0dCO1HzW-Lo9ZsbFu-38" style="edgeStyle=orthogonalEdgeStyle;rounded=0;orthogonalLoop=1;jettySize=auto;html=1;exitX=0.75;exitY=1;exitDx=0;exitDy=0;entryX=0.5;entryY=0;entryDx=0;entryDy=0;" edge="1" parent="1" source="pys0dCO1HzW-Lo9ZsbFu-36" target="pys0dCO1HzW-Lo9ZsbFu-30">
          <mxGeometry relative="1" as="geometry" />
        </mxCell>
        <mxCell id="pys0dCO1HzW-Lo9ZsbFu-36" value="客服系统" style="rounded=1;whiteSpace=wrap;html=1;" vertex="1" parent="1">
          <mxGeometry x="392" y="-130" width="100" height="50" as="geometry" />
        </mxCell>
        <mxCell id="pys0dCO1HzW-Lo9ZsbFu-39" value="销售系统" style="rounded=1;whiteSpace=wrap;html=1;" vertex="1" parent="1">
          <mxGeometry x="570" y="-130" width="100" height="50" as="geometry" />
        </mxCell>
        <mxCell id="pys0dCO1HzW-Lo9ZsbFu-40" value="IM工具" style="rounded=1;whiteSpace=wrap;html=1;" vertex="1" parent="1">
          <mxGeometry x="740" y="-130" width="100" height="50" as="geometry" />
        </mxCell>
        <mxCell id="pys0dCO1HzW-Lo9ZsbFu-51" style="edgeStyle=orthogonalEdgeStyle;rounded=0;orthogonalLoop=1;jettySize=auto;html=1;exitX=1;exitY=0.5;exitDx=0;exitDy=0;entryX=0;entryY=0.75;entryDx=0;entryDy=0;" edge="1" parent="1" source="pys0dCO1HzW-Lo9ZsbFu-43" target="pys0dCO1HzW-Lo9ZsbFu-8">
          <mxGeometry relative="1" as="geometry" />
        </mxCell>
        <mxCell id="pys0dCO1HzW-Lo9ZsbFu-43" value="接入系统&lt;br&gt;IP服务" style="rounded=1;whiteSpace=wrap;html=1;" vertex="1" parent="1">
          <mxGeometry x="10" y="122" width="100" height="50" as="geometry" />
        </mxCell>
        <mxCell id="pys0dCO1HzW-Lo9ZsbFu-50" style="edgeStyle=orthogonalEdgeStyle;rounded=0;orthogonalLoop=1;jettySize=auto;html=1;exitX=0.5;exitY=0;exitDx=0;exitDy=0;entryX=0.5;entryY=1;entryDx=0;entryDy=0;" edge="1" parent="1" source="pys0dCO1HzW-Lo9ZsbFu-44" target="pys0dCO1HzW-Lo9ZsbFu-43">
          <mxGeometry relative="1" as="geometry" />
        </mxCell>
        <mxCell id="pys0dCO1HzW-Lo9ZsbFu-44" value="Zookeeper" style="rounded=1;whiteSpace=wrap;html=1;" vertex="1" parent="1">
          <mxGeometry x="10" y="250" width="100" height="50" as="geometry" />
        </mxCell>
        <mxCell id="pys0dCO1HzW-Lo9ZsbFu-47" value="注册服务" style="text;html=1;align=center;verticalAlign=middle;resizable=0;points=[];autosize=1;strokeColor=none;fillColor=none;" vertex="1" parent="1">
          <mxGeometry x="120" y="240" width="70" height="30" as="geometry" />
        </mxCell>
        <mxCell id="pys0dCO1HzW-Lo9ZsbFu-48" value="TCP&lt;br&gt;接入系统" style="rounded=1;whiteSpace=wrap;html=1;" vertex="1" parent="1">
          <mxGeometry x="450" y="250" width="100" height="50" as="geometry" />
        </mxCell>
        <mxCell id="pys0dCO1HzW-Lo9ZsbFu-52" value="随机选取机器" style="text;html=1;align=center;verticalAlign=middle;resizable=0;points=[];autosize=1;strokeColor=none;fillColor=none;" vertex="1" parent="1">
          <mxGeometry x="100" y="120" width="100" height="30" as="geometry" />
        </mxCell>
        <mxCell id="pys0dCO1HzW-Lo9ZsbFu-45" style="edgeStyle=orthogonalEdgeStyle;rounded=0;orthogonalLoop=1;jettySize=auto;html=1;exitX=0;exitY=0.5;exitDx=0;exitDy=0;entryX=1;entryY=0.5;entryDx=0;entryDy=0;" edge="1" parent="1" source="pys0dCO1HzW-Lo9ZsbFu-1" target="pys0dCO1HzW-Lo9ZsbFu-44">
          <mxGeometry relative="1" as="geometry">
            <Array as="points">
              <mxPoint x="220" y="275" />
              <mxPoint x="220" y="275" />
            </Array>
          </mxGeometry>
        </mxCell>
        <mxCell id="pys0dCO1HzW-Lo9ZsbFu-53" value="..." style="text;html=1;align=center;verticalAlign=middle;resizable=0;points=[];autosize=1;strokeColor=none;fillColor=none;fontSize=18;fontColor=#000000;" vertex="1" parent="1">
          <mxGeometry x="394" y="255" width="40" height="40" as="geometry" />
        </mxCell>
      </root>
    </mxGraphModel>
  </diagram>
</mxfile>
